<svg version="1.1" xmlns="http://www.w3.org/2000/svg" xmlns:xlink="http://www.w3.org/1999/xlink" x="0px" y="0px"
	 width="176px" height="22px">
<path fill="#D7DCDE" d="M21.042,16.021c0,2.761-2.239,5-5,5h-10c-2.761,0-5-2.239-5-5v-10c0-2.761,2.239-5,5-5h10
	c2.761,0,5,2.239,5,5V16.021z"/>
<path opacity="0.5" fill="#D7DCDE" d="M65.208,15.979c0,2.761-2.239,5-5,5h-10c-2.761,0-5-2.239-5-5
	v-10c0-2.761,2.239-5,5-5h10c2.761,0,5,2.239,5,5V15.979z"/>
<path fill="#333333" d="M121.208,1.104c-5.477,0-9.917,4.44-9.917,9.917s4.44,9.917,9.917,9.917s9.917-4.44,9.917-9.917
	C131.125,5.544,126.685,1.104,121.208,1.104z M121.208,17.104c-3.36,0-6.083-2.724-6.083-6.083c0-3.36,2.724-6.083,6.083-6.083
	c3.36,0,6.083,2.724,6.083,6.083S124.568,17.104,121.208,17.104z"/>
<circle fill="#333333" cx="121" cy="10.979" r="3.042"/>
<path fill="#CDCCCC" d="M99.291,1.062c-5.477,0-9.917,4.44-9.917,9.917s4.44,9.917,9.917,9.917s9.917-4.44,9.917-9.917
	C109.207,5.503,104.767,1.062,99.291,1.062z M99.291,17.062c-3.36,0-6.083-2.724-6.083-6.083c0-3.36,2.724-6.083,6.083-6.083
	c3.36,0,6.083,2.724,6.083,6.083C105.374,14.339,102.65,17.062,99.291,17.062z"/>
<path opacity="0.5" fill="#CDCCCC" d="M143.125,1.104c-5.477,0-9.917,4.44-9.917,9.917
	s4.44,9.917,9.917,9.917c5.477,0,9.917-4.44,9.917-9.917C153.042,5.544,148.602,1.104,143.125,1.104z M143.125,17.104
	c-3.36,0-6.083-2.724-6.083-6.083c0-3.36,2.724-6.083,6.083-6.083c3.36,0,6.083,2.724,6.083,6.083
	C149.208,14.38,146.485,17.104,143.125,17.104z"/>
<path opacity="0.5" fill="#CDCCCC" d="M165.042,1.104c-5.477,0-9.917,4.44-9.917,9.917
	s4.44,9.917,9.917,9.917c5.477,0,9.917-4.44,9.917-9.917C174.959,5.544,170.519,1.104,165.042,1.104z M165.042,17.104
	c-3.36,0-6.083-2.724-6.083-6.083c0-3.36,2.724-6.083,6.083-6.083c3.36,0,6.083,2.724,6.083,6.083
	C171.126,14.38,168.402,17.104,165.042,17.104z"/>
<circle opacity="0.5" fill="#CDCCCC" cx="164.834" cy="10.979" r="3.042"/>
<path fill="#333333" d="M38.125,1.02h-10c-2.761,0-5,2.239-5,5v10c0,2.761,2.239,5,5,5h10c2.761,0,5-2.239,5-5v-10
	C43.125,3.26,40.886,1.02,38.125,1.02z M39.361,9.3l-5.892,5.892c-0.024,0.034-0.044,0.07-0.075,0.101l-0.86,0.86
	c-0.219,0.219-0.526,0.267-0.686,0.108l-4.143-4.143c-0.16-0.16-0.111-0.467,0.108-0.686l0.86-0.86
	c0.219-0.219,0.526-0.267,0.686-0.108l2.766,2.766l5.583-5.583c0.254-0.254,0.637-0.282,0.856-0.062l0.86,0.86
	C39.643,8.663,39.615,9.047,39.361,9.3z"/>
<path opacity="0.5" fill="#D7DCDE" d="M82.291,0.979h-10c-2.761,0-5,2.239-5,5v10c0,2.761,2.239,5,5,5
	h10c2.761,0,5-2.239,5-5v-10C87.291,3.217,85.052,0.979,82.291,0.979z M83.527,9.259l-5.892,5.892
	c-0.024,0.034-0.044,0.07-0.075,0.101l-0.86,0.86c-0.219,0.219-0.526,0.267-0.686,0.108l-4.143-4.143
	c-0.16-0.16-0.111-0.467,0.108-0.686l0.86-0.86c0.219-0.219,0.526-0.267,0.686-0.108l2.766,2.766l5.583-5.583
	c0.254-0.254,0.637-0.282,0.856-0.062l0.86,0.86C83.809,8.622,83.781,9.005,83.527,9.259z"/>
</svg>
